<?xml version="1.0" encoding="utf-8"?>
<!-- Generator: Adobe Illustrator 24.1.0, SVG Export Plug-In . SVG Version: 6.00 Build 0)  -->
<svg version="1.1" id="Layer_1" xmlns="http://www.w3.org/2000/svg" xmlns:xlink="http://www.w3.org/1999/xlink" x="0px" y="0px"
	 viewBox="0 0 56 55.4" style="enable-background:new 0 0 56 55.4;" xml:space="preserve">
<style type="text/css">
	.st0{clip-path:url(#SVGID_2_);}
	.st1{fill:#E7E7E7;}
	.st2{filter:url(#Adobe_OpacityMaskFilter);}
	.st3{fill:#F5F5F5;}
	.st4{mask:url(#SVGID_5_);}
	.st5{fill:#FFFFFF;}
	.st6{fill:#E4F5D9;}
	.st7{fill:#C9EBB3;}
	.st8{fill:#9DDB74;}
</style>
<g>
	<defs>
		<rect id="SVGID_1_" x="-0.1" y="1.7" width="417" height="81"/>
	</defs>
	<clipPath id="SVGID_2_">
		<use xlink:href="#SVGID_1_"  style="overflow:visible;"/>
	</clipPath>
	<g class="st0">
		<defs>
			<rect id="SVGID_3_" x="-447.1" y="-40.3" width="2880" height="1512"/>
		</defs>
		<clipPath id="SVGID_4_">
			<use xlink:href="#SVGID_3_"  style="overflow:visible;"/>
		</clipPath>
	</g>
</g>
<path class="st1" d="M2.9,10.7c0-4.4,3.6-8,8-8h34c4.4,0,8,3.6,8,8v34c0,4.4-3.6,8-8,8h-34c-4.4,0-8-3.6-8-8V10.7z"/>
<defs>
	<filter id="Adobe_OpacityMaskFilter" filterUnits="userSpaceOnUse" x="2.9" y="2.7" width="67.5" height="50.5">
		<feColorMatrix  type="matrix" values="1 0 0 0 0  0 1 0 0 0  0 0 1 0 0  0 0 0 1 0"/>
	</filter>
</defs>
<mask maskUnits="userSpaceOnUse" x="2.9" y="2.7" width="67.5" height="50.5" id="SVGID_5_">
	<g class="st2">
		<path class="st3" d="M2.9,10.7c0-4.4,3.6-8,8-8h34c4.4,0,8,3.6,8,8v34c0,4.4-3.6,8-8,8h-34c-4.4,0-8-3.6-8-8V10.7z"/>
	</g>
</mask>
<g class="st4">
	<g>
		<rect x="47.9" y="2.7" class="st5" width="1" height="50"/>
		<rect x="2.9" y="7.2" class="st5" width="50" height="1"/>
		<rect x="2.9" y="17.2" class="st5" width="50" height="1"/>
		<rect x="2.9" y="27.2" class="st5" width="50" height="1"/>
		<rect x="2.9" y="37.2" class="st5" width="50" height="1"/>
		<rect x="2.9" y="47.2" class="st5" width="50" height="1"/>
		<rect x="20.4" y="49.7" class="st5" width="50" height="1"/>
		<rect x="20.4" y="52.2" class="st5" width="50" height="1"/>
		<rect x="37.9" y="2.7" class="st5" width="1" height="50"/>
		<rect x="27.9" y="2.7" class="st5" width="1" height="50"/>
		<rect x="17.9" y="2.7" class="st5" width="1" height="50"/>
		<rect x="7.9" y="2.7" class="st5" width="1" height="50"/>
		<path class="st6" d="M32.9,39.5C19,28.2,9.9,13.9,2.9,2.7v24.9v14.6v10.6h60.5C50.5,50.3,41.1,46,32.9,39.5z"/>
		<path class="st7" d="M7.2,26.3c-2-0.1-2.9,0.2-4.4,1.2v14.7v10.6h60.5l-0.2,0c-8.8-1.5-13.8-2.4-22.2-5.9l0,0h0
			c-5.1-2.7-7.9-4.2-12.5-7.4C16.1,30,10.7,26.2,7.2,26.3z"/>
		<path class="st8" d="M2.9,42.2c2.7-3.7,4.5-5.4,9.4-5.8c3.4-0.2,7.8,1.7,18.5,7c11.7,5.7,18.9,7.2,32.7,9.3H2.9V42.2z"/>
	</g>
</g>
</svg>
